<svg width="200" height="200" viewBox="0 0 200 200" fill="none" xmlns="http://www.w3.org/2000/svg">
<mask id="mask0_1847_8497" style="mask-type:alpha" maskUnits="userSpaceOnUse" x="0" y="0" width="200" height="200">
<rect width="200" height="200" fill="url(#paint0_linear_1847_8497)"/>
</mask>
<g mask="url(#mask0_1847_8497)">
<path d="M49.7885 88.587L59.4801 34.29L20.5192 58.0345L10.791 50.7135V94.402C10.791 95.5352 11.2717 96.6152 12.1136 97.3737L20.5128 104.941L49.7885 88.587Z" fill="url(#paint1_linear_1847_8497)"/>
<path d="M73.6855 56.1616L63.0508 62.7147V33.3879L73.6855 25.3606V56.1616Z" fill="url(#paint2_linear_1847_8497)"/>
<path d="M109.068 45.9358V90.8457L59.2751 124.858C57.0184 126.4 54.0494 126.408 51.7844 124.879L46.8609 121.555C45.7585 120.811 45.0977 119.568 45.0977 118.239V70.8258L55.5347 77.8571V78.0173L109.068 45.9358Z" fill="url(#paint3_linear_1847_8497)"/>
<path d="M113.592 109.668V64.7585L85.3828 81.5077V130.194L113.592 109.668Z" fill="url(#paint4_linear_1847_8497)"/>
<path d="M139.836 80.6616V128.798L100.96 155.508L68.0645 132.756C65.9044 131.262 64.6153 128.803 64.6153 126.177V105.825V81.2787L100.803 102.974L139.836 80.6616Z" fill="url(#paint5_linear_1847_8497)"/>
<path d="M168.418 85.7637V138.31L124.428 166.511C122.067 168.024 119.011 167.899 116.783 166.196L112.211 162.703C110.615 161.439 109.686 159.515 109.686 157.479V108.257L120.251 114.351L168.418 85.7637Z" fill="url(#paint6_linear_1847_8497)"/>
<path d="M190.45 94.0569V146.603L144.012 177.173C141.645 178.731 138.551 178.623 136.299 176.902L131.775 173.446C130.18 172.181 129.25 170.257 129.25 168.222V118.999L139.816 125.094L190.45 94.0569Z" fill="url(#paint7_linear_1847_8497)"/>
<path d="M60.3765 18.9078L12.7281 47.5439C10.1821 49.074 10.1332 52.7476 12.6378 54.3449L17.1196 57.2032C18.8426 58.302 21.0419 58.3198 22.7824 57.2488L50.4425 40.2291C51.462 39.6018 52.7276 40.5316 52.4338 41.692L45.5636 68.8249C44.9855 71.1081 45.9734 73.5001 47.9941 74.7099L51.7705 76.9709C53.8343 78.2065 56.4037 78.2346 58.4939 77.0443L107.043 49.3987C109.683 47.8955 109.75 44.1144 107.165 42.5189L103.268 40.1137C101.196 38.835 98.5926 38.7872 96.4755 39.9888L68.9684 55.6014C67.9566 56.1757 66.746 55.2692 67.0124 54.1366L73.6156 26.0556C74.0094 24.3808 73.2881 22.6417 71.8245 21.7373L67.3152 18.9507C65.1926 17.6391 62.5152 17.6225 60.3765 18.9078Z" fill="#FAFAFA"/>
<path d="M104.992 58.8702L112.946 63.6628C113.82 64.1894 113.803 65.4624 112.915 65.9651L89.4027 79.277C87.6241 80.284 87.5929 82.8352 89.3463 83.8853L97.4841 88.7591C99.1652 89.7659 101.263 89.7698 102.948 88.7692L127.293 74.3107C128.536 73.5726 130.081 73.5625 131.333 74.2842L138.461 78.3919C140.224 79.4079 140.245 81.9445 138.499 82.9901L106.419 102.205C103.056 104.219 98.8603 104.227 95.4904 102.225L66.5934 85.0596C63.949 83.4888 63.9929 79.6458 66.6724 78.1358L100.964 58.8116C102.219 58.1042 103.758 58.1266 104.992 58.8702Z" fill="#FAFAFA"/>
<path d="M166.981 83.3521L160.017 79.5746C158.787 78.9073 157.298 78.9314 156.09 79.6379L111.127 105.94C109.36 106.974 109.369 109.531 111.143 110.553L118.938 115.043C120.208 115.774 121.776 115.753 123.025 114.987L167.103 87.9697C168.854 86.8968 168.786 84.3311 166.981 83.3521Z" fill="#FAFAFA"/>
<path d="M188.822 91.7954L181.023 88.4845C179.847 87.9856 178.505 88.0777 177.408 88.7324L130.528 116.733C128.803 117.763 128.793 120.259 130.511 121.302L137.937 125.812C139.226 126.595 140.846 126.587 142.127 125.79L189.189 96.5144C191.023 95.3735 190.811 92.6395 188.822 91.7954Z" fill="#FAFAFA"/>
</g>
<defs>
<linearGradient id="paint0_linear_1847_8497" x1="0" y1="0" x2="200" y2="200" gradientUnits="userSpaceOnUse">
<stop offset="0.000540788" stop-color="white"/>
<stop offset="0.5" stop-color="white" stop-opacity="0.25"/>
<stop offset="0.862817" stop-color="white" stop-opacity="0"/>
</linearGradient>
<linearGradient id="paint1_linear_1847_8497" x1="19.1151" y1="62.7711" x2="39.8418" y2="93.1992" gradientUnits="userSpaceOnUse">
<stop stop-color="#B7B7B7"/>
<stop offset="1" stop-color="#7D7D7D" stop-opacity="0"/>
</linearGradient>
<linearGradient id="paint2_linear_1847_8497" x1="64.8689" y1="40.4189" x2="75.3119" y2="46.7524" gradientUnits="userSpaceOnUse">
<stop stop-color="#B7B7B7"/>
<stop offset="1" stop-color="#7D7D7D" stop-opacity="0"/>
</linearGradient>
<linearGradient id="paint3_linear_1847_8497" x1="48.9029" y1="89.6191" x2="92.6707" y2="117.471" gradientUnits="userSpaceOnUse">
<stop stop-color="#B8B8B8"/>
<stop offset="1" stop-color="#808080" stop-opacity="0"/>
</linearGradient>
<linearGradient id="paint4_linear_1847_8497" x1="100.522" y1="75.5266" x2="100.301" y2="91.5667" gradientUnits="userSpaceOnUse">
<stop stop-color="#9E9E9E"/>
<stop offset="1" stop-color="#D6D6D6" stop-opacity="0"/>
</linearGradient>
<linearGradient id="paint5_linear_1847_8497" x1="77.4752" y1="110.834" x2="95.5705" y2="149.574" gradientUnits="userSpaceOnUse">
<stop stop-color="#B7B7B7"/>
<stop offset="1" stop-color="#7D7D7D" stop-opacity="0"/>
</linearGradient>
<linearGradient id="paint6_linear_1847_8497" x1="119.727" y1="119.331" x2="143.943" y2="155.717" gradientUnits="userSpaceOnUse">
<stop stop-color="#9C9A9A"/>
<stop offset="1" stop-color="#7D7D7D" stop-opacity="0"/>
</linearGradient>
<linearGradient id="paint7_linear_1847_8497" x1="139.713" y1="128.612" x2="164.523" y2="166.346" gradientUnits="userSpaceOnUse">
<stop stop-color="#9C9A9A"/>
<stop offset="1" stop-color="#7D7D7D" stop-opacity="0"/>
</linearGradient>
</defs>
</svg>
